<svg xmlns="http://www.w3.org/2000/svg" version="1.1" xmlns:xlink="http://www.w3.org/1999/xlink" xmlns:svgjs="http://svgjs.dev/svgjs" width="1500" height="1500" viewBox="0 0 1500 1500"><rect width="1500" height="1500" fill="#4a5d5e"></rect><g transform="matrix(0.6666666666666666,0,0,0.6666666666666666,248.9008114087476,578.2446424286295)"><svg viewBox="0 0 295 101" data-background-color="#4a5d5e" preserveAspectRatio="xMidYMid meet" height="513" width="1500" xmlns="http://www.w3.org/2000/svg" xmlns:xlink="http://www.w3.org/1999/xlink"><g id="tight-bounds" transform="matrix(1,0,0,1,0.32426063441945985,0.22307343481992348)"><svg viewBox="0 0 294.3514787311611 100.55385313036012" height="100.55385313036012" width="294.3514787311611"><g><svg viewBox="0 0 294.3514787311611 100.55385313036012" height="100.55385313036012" width="294.3514787311611"><g><svg viewBox="0 0 294.3514787311611 100.55385313036012" height="100.55385313036012" width="294.3514787311611"><g id="textblocktransform"><svg viewBox="0 0 294.3514787311611 100.55385313036012" height="100.55385313036012" width="294.3514787311611" id="textblock"><g><svg viewBox="0 0 294.3514787311611 80.3337" height="80.3337" width="294.3514787311611"><g><svg><g></g><g></g></svg></g><g><svg><g><svg></svg></g><g></g></svg></g><g id="text-0"><svg viewBox="0 0 294.3514787311611 80.3337" height="80.3337" width="294.3514787311611"><g transform="matrix(1,0,0,1,0,13.541849999999997)"><svg width="154.29999999999998" viewBox="2.45 -36.5 154.29000000000002 49.65" height="49.650000000000006" data-palette-color="#d2dbc8"><path d="M36.85-18.45L36.85-18.45Q36.85-14.4 35.58-10.63 34.3-6.85 31.58-4 28.85-1.15 24.45 0.05L24.45 0.05 40 7.8 40 8.9 35.85 10.85Q35.85 10.85 34.75 10.13 33.65 9.4 31.83 8.2 30 7 27.78 5.65 25.55 4.3 23.28 3 21 1.7 19.05 0.8L19.05 0.8 19.1 0.8Q18.85 0.8 18.6 0.8L18.6 0.8Q12.95 0.8 9.38-1.3 5.8-3.4 4.13-7.13 2.45-10.85 2.45-15.7L2.45-15.7Q2.45-19.3 3.48-22.73 4.5-26.15 6.68-28.9 8.85-31.65 12.33-33.27 15.8-34.9 20.7-34.9L20.7-34.9Q26.4-34.9 29.95-32.83 33.5-30.75 35.18-27.05 36.85-23.35 36.85-18.45ZM31.6-15.6L31.6-15.6Q31.6-18.85 31.1-21.85 30.6-24.85 29.33-27.28 28.05-29.7 25.78-31.1 23.5-32.5 19.9-32.5L19.9-32.5Q16.85-32.5 14.73-31.38 12.6-30.25 11.23-28.48 9.85-26.7 9.08-24.65 8.3-22.6 8-20.7 7.7-18.8 7.7-17.5L7.7-17.5Q7.7-14.4 8.28-11.55 8.85-8.7 10.2-6.45 11.55-4.2 13.8-2.9 16.05-1.6 19.4-1.6L19.4-1.6Q22.15-1.6 24.23-2.58 26.3-3.55 27.7-5.15 29.1-6.75 29.98-8.63 30.85-10.5 31.23-12.33 31.6-14.15 31.6-15.6ZM62.5-4.25L62.5-4.25Q62.55-3.35 63.12-2.9 63.7-2.45 64.57-2.33 65.45-2.2 66.3-2.15L66.3-2.15 66.15-0.7Q64.8-0.6 63.4-0.33 62-0.05 60.7 0.2L60.7 0.2Q60.7 0.2 59.87-0.43 59.05-1.05 58.65-2.8L58.65-2.8Q56.65-1.45 54.05-0.5 51.45 0.45 48.95 0.45L48.95 0.45Q46.75 0.45 45.3-0.68 43.85-1.8 43.85-4.75L43.85-4.75 43.85-11.45Q43.85-15.1 43.77-16.88 43.7-18.65 43.6-19.23 43.5-19.8 43.5-19.8L43.5-19.8 40.55-20.75 40.45-22.05Q41.8-22.05 43.67-22.33 45.55-22.6 46.8-22.95L46.8-22.95 47.75-22.5Q47.75-22.5 47.72-21 47.7-19.5 47.67-17.03 47.65-14.55 47.62-11.68 47.6-8.8 47.6-6L47.6-6Q47.6-4.15 48.62-3.4 49.65-2.65 51.65-2.65L51.65-2.65Q53.5-2.65 55.42-3.35 57.35-4.05 58.4-4.75L58.4-4.75Q58.5-5.75 58.55-7.15 58.6-8.55 58.6-11.45L58.6-11.45Q58.6-15.1 58.5-16.88 58.4-18.65 58.3-19.23 58.2-19.8 58.2-19.8L58.2-19.8 55.05-20.75 54.95-22.05Q55.85-22.05 57.07-22.18 58.3-22.3 59.5-22.53 60.7-22.75 61.55-22.95L61.55-22.95 62.5-22.5Q62.5-22.5 62.42-19.55 62.35-16.6 62.35-10.1L62.35-10.1Q62.35-6.95 62.42-5.6 62.5-4.25 62.5-4.25ZM75.14-22.95L75.14-22.95 76.09-22.5Q76.09-21.85 76.07-20.5 76.05-19.15 76.05-17.53 76.05-15.9 76.02-14.28 76-12.65 76-11.45L76-11.45Q76-7.8 76.12-5.85 76.25-3.9 76.37-3.15 76.5-2.4 76.5-2.4L76.5-2.4Q76.55-2.15 77.22-1.9 77.89-1.65 78.72-1.5 79.55-1.35 80.05-1.3L80.05-1.3 79.89 0.15Q78.69 0.05 77.07 0.03 75.44 0 74.14 0L74.14 0Q72.89 0 71.14 0.03 69.39 0.05 68.19 0.15L68.19 0.15 68.34-1.3Q68.89-1.35 69.69-1.5 70.5-1.65 71.14-1.9 71.8-2.15 71.84-2.4L71.84-2.4Q71.84-2.4 71.94-3.15 72.05-3.9 72.14-5.85 72.25-7.8 72.25-11.45L72.25-11.45Q72.25-15.1 72.14-16.88 72.05-18.65 71.94-19.23 71.84-19.8 71.84-19.8L71.84-19.8 68.64-20.75 68.55-22.05Q69.44-22.05 70.67-22.18 71.89-22.3 73.09-22.53 74.3-22.75 75.14-22.95ZM74-28.15L74-28.15Q72.89-28.15 72.14-28.93 71.39-29.7 71.39-30.85L71.39-30.85Q71.39-31.95 72.14-32.7 72.89-33.45 74-33.45L74-33.45Q75.09-33.45 75.84-32.7 76.59-31.95 76.59-30.85L76.59-30.85Q76.59-29.7 75.84-28.93 75.09-28.15 74-28.15ZM100.74 0L100.74 0 83.14 0 82.14-1.5 96.49-20.5Q92.69-20.5 90.52-20.43 88.34-20.35 87.22-19.95 86.09-19.55 85.54-18.68 84.99-17.8 84.49-16.2L84.49-16.2 83.19-16.65Q83.34-17.6 83.49-19.23 83.64-20.85 83.64-22.1L83.64-22.1 83.64-22.75Q84.79-22.65 86.92-22.6 89.04-22.55 91.54-22.53 94.04-22.5 96.49-22.5 98.94-22.5 100.74-22.5L100.74-22.5 101.49-21.1 87.34-2.25Q91.79-2.25 94.39-2.55 96.99-2.85 98.39-3.95 99.79-5.05 100.49-7.35L100.49-7.35 101.79-6.9Q101.54-6.15 101.32-4.8 101.09-3.45 100.94-2.13 100.79-0.8 100.74 0ZM111.09-22.95L111.09-22.95 112.04-22.5Q112.04-21.85 112.02-20.5 111.99-19.15 111.99-17.53 111.99-15.9 111.97-14.28 111.94-12.65 111.94-11.45L111.94-11.45Q111.94-7.8 112.07-5.85 112.19-3.9 112.32-3.15 112.44-2.4 112.44-2.4L112.44-2.4Q112.49-2.15 113.17-1.9 113.84-1.65 114.67-1.5 115.49-1.35 115.99-1.3L115.99-1.3 115.84 0.15Q114.64 0.05 113.02 0.03 111.39 0 110.09 0L110.09 0Q108.84 0 107.09 0.03 105.34 0.05 104.14 0.15L104.14 0.15 104.29-1.3Q104.84-1.35 105.64-1.5 106.44-1.65 107.09-1.9 107.74-2.15 107.79-2.4L107.79-2.4Q107.79-2.4 107.89-3.15 107.99-3.9 108.09-5.85 108.19-7.8 108.19-11.45L108.19-11.45Q108.19-15.1 108.09-16.88 107.99-18.65 107.89-19.23 107.79-19.8 107.79-19.8L107.79-19.8 104.59-20.75 104.49-22.05Q105.39-22.05 106.62-22.18 107.84-22.3 109.04-22.53 110.24-22.75 111.09-22.95ZM109.94-28.15L109.94-28.15Q108.84-28.15 108.09-28.93 107.34-29.7 107.34-30.85L107.34-30.85Q107.34-31.95 108.09-32.7 108.84-33.45 109.94-33.45L109.94-33.45Q111.04-33.45 111.79-32.7 112.54-31.95 112.54-30.85L112.54-30.85Q112.54-29.7 111.79-28.93 111.04-28.15 109.94-28.15ZM126.14-2.4L126.14-2.4Q126.19-2.15 126.91-1.9 127.64-1.65 128.54-1.5 129.44-1.35 129.94-1.3L129.94-1.3 129.79 0.15Q128.59 0.05 126.71 0.03 124.84 0 123.54 0L123.54 0Q122.29 0 120.71 0.03 119.14 0.05 117.94 0.15L117.94 0.15 118.09-1.3Q118.64-1.35 119.41-1.5 120.19-1.65 120.81-1.9 121.44-2.15 121.49-2.4L121.49-2.4Q121.49-2.4 121.56-3.2 121.64-4 121.71-5.98 121.79-7.95 121.84-11.45 121.89-14.95 121.89-20.3L121.89-20.3Q120.24-20.25 119.34-20.25 118.44-20.25 118.44-20.25L118.44-20.25 118.29-20.8 119.44-22.75Q119.44-22.75 120.01-22.7 120.59-22.65 121.84-22.55L121.84-22.55Q121.84-26 122.94-28.45 124.04-30.9 125.69-32.48 127.34-34.05 129.06-34.93 130.79-35.8 132.14-36.15 133.49-36.5 133.89-36.5L133.89-36.5Q134.14-36.5 134.66-35.98 135.19-35.45 135.71-34.65 136.24-33.85 136.44-33L136.44-33 135.69-32.05Q135.04-32.35 133.86-32.68 132.69-33 131.39-33L131.39-33Q129.99-33 128.66-32.23 127.34-31.45 126.49-29.23 125.64-27 125.64-22.6L125.64-22.6Q128.74-22.6 130.44-22.63 132.14-22.65 132.14-22.65L132.14-22.65 132.39-22.05 130.84-20.1Q130.84-20.1 129.56-20.18 128.29-20.25 125.64-20.3L125.64-20.3Q125.64-15.05 125.71-11.63 125.79-8.2 125.86-6.23 125.94-4.25 126.04-3.4 126.14-2.55 126.14-2.4ZM143.99 0L143.99 0 142.24-1.05 135.74-19.3Q135.53-19.85 134.94-20.48 134.34-21.1 132.69-21.35L132.69-21.35 132.53-22.8Q132.53-22.8 133.44-22.78 134.34-22.75 135.53-22.7 136.74-22.65 137.64-22.65L137.64-22.65Q138.59-22.65 139.74-22.7 140.89-22.75 141.71-22.78 142.53-22.8 142.53-22.8L142.53-22.8 142.69-21.35Q141.03-21.15 140.36-20.7 139.69-20.25 139.69-19.85L139.69-19.85Q139.69-19.65 141.14-15.43 142.59-11.2 145.19-3.2L145.19-3.2Q147.99-11.1 149.39-15.28 150.78-19.45 150.78-19.9L150.78-19.9Q150.78-21 148.03-21.35L148.03-21.35 147.89-22.8Q147.89-22.8 148.99-22.73 150.09-22.65 151.49-22.65L151.49-22.65Q152.39-22.65 153.59-22.7 154.79-22.75 155.69-22.78 156.59-22.8 156.59-22.8L156.59-22.8 156.74-21.35Q155.19-21.15 154.56-20.78 153.94-20.4 153.71-19.7 153.49-19 152.99-17.7L152.99-17.7 146.34 0Q144.53 4.8 142.94 7.5 141.34 10.2 140.06 11.4 138.78 12.6 137.84 12.88 136.89 13.15 136.34 13.15L136.34 13.15Q136.09 13.15 135.56 12.63 135.03 12.1 134.53 11.28 134.03 10.45 133.78 9.65L133.78 9.65 134.53 8.7Q135.49 9.15 136.78 9.15L136.78 9.15Q137.59 9.15 138.69 8.45 139.78 7.75 141.14 5.78 142.49 3.8 143.99 0Z" opacity="1" transform="matrix(1,0,0,1,0,0)" fill="#d2dbc8" class="undefined-tk-0"></path></svg></g><g><svg xmlns="http://www.w3.org/2000/svg" viewBox="20.87687048518243 5 58.222129514817574 90" x="173.26629999999997" y="0" height="80.3337" width="51.96887873116111" class="icon-dxe-0" data-fill-palette-color="accent" id="dxe-0"><path d="M49.969 5C30.72 5 20.709 20 20.879 35 21.115 56.833 42.705 65 49.969 95 57.248 65 79.099 56.358 79.099 35 79.099 20 67.793 5 49.979 5M49.979 16.313L50.073 16.376 69.823 33.907 67.76 36.251 49.979 20.501 32.229 36.251 30.135 33.907 49.916 16.376zM57.698 18.563H61.011V24.313L57.761 21.532zM49.979 22.282L63.917 34.595V52.501H56.823V39.876H48.823V52.501H36.042V34.595z" fill="#f8f8ec" data-fill-palette-color="accent"></path></svg></g><g transform="matrix(1,0,0,1,244.20147873116107,9.74185)"><svg width="50.15" viewBox="0 -34.7 50.15 34.85" height="34.85" data-palette-color="#d2dbc8"><path d="M0.15 0.15L0.15 0.15 0-1.3Q2.35-1.75 3.35-2.27 4.35-2.8 4.65-3.75L4.65-3.75 14.6-34.2 18.8-34.7 30.45-3.45Q30.8-2.6 31.63-2.15 32.45-1.7 34.7-1.3L34.7-1.3 34.55 0.15Q32.9 0.05 31.3 0.03 29.7 0 27.9 0L27.9 0Q23.95 0 20.85 0.15L20.85 0.15 20.7-1.3Q23.3-1.8 24.2-2.2 25.1-2.6 25.1-3.2L25.1-3.2 22.35-12.1 11.05-12.1 8.35-3.2Q8.35-2.6 9.3-2.2 10.25-1.8 12.65-1.3L12.65-1.3 12.5 0.15Q10.85 0.05 9.25 0.03 7.65 0 5.85 0L5.85 0Q4.3 0 3.2 0.03 2.1 0.05 0.15 0.15ZM16.3-29.5L11.75-14.4 21.55-14.4 16.5-29.5 16.3-29.5ZM45.5-17.1L45.5-17.1Q45.5-11.7 45.6-8.75 45.7-5.8 45.8-4.63 45.9-3.45 45.9-3.45L45.9-3.45Q46-2.5 46.95-2.13 47.9-1.75 50.15-1.3L50.15-1.3 50 0.15Q48.45 0.05 46.85 0.03 45.25 0 43.35 0L43.35 0Q39.45 0 36.3 0.15L36.3 0.15 36.15-1.3Q38.4-1.75 39.45-2.13 40.5-2.5 40.6-3.45L40.6-3.45Q40.6-3.45 40.7-4.63 40.8-5.8 40.9-8.78 41-11.75 41-17.1L41-17.1Q41-22.5 40.9-25.48 40.8-28.45 40.7-29.63 40.6-30.8 40.6-30.8L40.6-30.8Q40.5-31.75 39.62-32.13 38.75-32.5 36.5-32.95L36.5-32.95 36.65-34.4Q38.25-34.35 39.87-34.3 41.5-34.25 43.35-34.25L43.35-34.25Q45.25-34.25 46.77-34.3 48.3-34.35 49.85-34.4L49.85-34.4 50-32.95Q47.75-32.5 46.87-32.13 46-31.75 45.9-30.8L45.9-30.8Q45.9-30.8 45.8-29.63 45.7-28.45 45.6-25.48 45.5-22.5 45.5-17.1Z" opacity="1" transform="matrix(1,0,0,1,0,0)" fill="#d2dbc8" class="undefined-tk-1"></path></svg></g></svg></g></svg></g><g transform="matrix(1,0,0,1,27.9633904794603,88.56094859999999)"><svg viewBox="0 0 238.42469777224048 11.99290453036014" height="11.99290453036014" width="238.42469777224048"><g transform="matrix(1,0,0,1,0,0)"><svg width="238.42469777224048" viewBox="0.12 -39.7 1051.2800000000002 52.910000000000004" height="11.99290453036014" data-palette-color="#d2dbc8"><g class="slogan-text-1" data-fill-palette-color="secondary" id="text-1"><path d="M5.62-6.15L5.62-13.77 0.12-13.77Q0.2-14.58 0.54-15.3 0.88-16.02 1.43-16.54 1.98-17.07 2.67-17.38 3.37-17.7 4.15-17.7L4.15-17.7 5.62-17.7 5.62-30.81Q5.62-32.1 5.97-33.24 6.32-34.38 6.95-35.22 7.57-36.06 8.41-36.54 9.25-37.01 10.21-37.01L10.21-37.01 25.54-37.01 25.54-32.89 11.47-32.89 11.47-17.7 21.14-17.7 21.14-13.77 11.47-13.77 11.47-4.17 27.71-4.17Q27.61-3.32 27.23-2.55 26.86-1.78 26.28-1.22 25.71-0.66 24.98-0.33 24.24 0 23.44 0L23.44 0 10.25 0Q9.28 0 8.44-0.49 7.59-0.98 6.97-1.81 6.35-2.64 5.98-3.76 5.62-4.88 5.62-6.15L5.62-6.15ZM32.81-6.2L32.81-38.84 38.64-38.84 38.64-4.17 43.85-4.17Q43.7-3.2 43.3-2.42 42.89-1.64 42.32-1.1 41.75-0.56 41.03-0.28 40.31 0 39.52 0L39.52 0 37.47 0Q36.52 0 35.67-0.49 34.81-0.98 34.18-1.82 33.54-2.66 33.18-3.78 32.81-4.91 32.81-6.2L32.81-6.2ZM47.75-6.2L47.75-19.36Q47.75-20.65 48.12-21.78 48.48-22.9 49.1-23.74 49.73-24.58 50.58-25.07 51.44-25.56 52.39-25.56L52.39-25.56 65.35-25.56Q66.3-25.56 67.15-25.07 67.99-24.58 68.62-23.74 69.26-22.9 69.62-21.78 69.99-20.65 69.99-19.36L69.99-19.36 69.99-11.23 53.58-11.23 53.58-4.17 71.5-4.17Q71.41-3.32 71.03-2.55 70.65-1.78 70.08-1.22 69.5-0.66 68.77-0.33 68.04 0 67.23 0L67.23 0 52.39 0Q51.44 0 50.58-0.49 49.73-0.98 49.1-1.82 48.48-2.66 48.12-3.78 47.75-4.91 47.75-6.2L47.75-6.2ZM53.58-14.65L64.16-14.65 64.16-21.39 53.58-21.39 53.58-14.65ZM84.03 0L75.19-25.56 81.12-25.56 87.79-4.1 94.45-25.56 100.36-25.56 91.5 0 84.03 0ZM105.8-6.13L105.8-18.68Q105.8-20.14 106.2-21.41 106.61-22.68 107.31-23.61 108.02-24.54 108.99-25.06 109.95-25.59 111.07-25.59L111.07-25.59 127.53-25.59 127.53-4.17 132.83-4.17Q132.73-3.32 132.35-2.55 131.97-1.78 131.4-1.22 130.82-0.66 130.09-0.33 129.36 0 128.55 0L128.55 0 125.94 0Q124.75 0 123.67-0.82 122.6-1.64 121.89-3.03L121.89-3.03Q121.18-1.64 120.11-0.82 119.03 0 117.84 0L117.84 0 110.44 0Q109.49 0 108.63-0.49 107.78-0.98 107.16-1.81 106.53-2.64 106.17-3.75 105.8-4.86 105.8-6.13L105.8-6.13ZM111.61-4.17L121.72-4.17 121.72-21.39 111.61-21.39 111.61-4.17ZM137.8-6.2L137.8-21.8 135.85-21.8 135.85-25.56 137.8-25.56 137.8-32.35 143.64-35.25 143.64-25.56 150.21-25.56 150.21-21.8 143.64-21.8 143.64-4.17 152.38-4.17Q152.28-3.32 151.9-2.55 151.53-1.78 150.94-1.22 150.35-0.66 149.62-0.33 148.89 0 148.08 0L148.08 0 142.44 0Q141.49 0 140.64-0.49 139.78-0.98 139.16-1.82 138.54-2.66 138.17-3.78 137.8-4.91 137.8-6.2L137.8-6.2ZM155.75-6.2L155.75-19.36Q155.75-20.65 156.11-21.78 156.48-22.9 157.1-23.74 157.72-24.58 158.58-25.07 159.43-25.56 160.39-25.56L160.39-25.56 173.35-25.56Q174.3-25.56 175.14-25.07 175.99-24.58 176.62-23.74 177.26-22.9 177.62-21.78 177.99-20.65 177.99-19.36L177.99-19.36 177.99-11.23 161.58-11.23 161.58-4.17 179.5-4.17Q179.4-3.32 179.03-2.55 178.65-1.78 178.07-1.22 177.5-0.66 176.77-0.33 176.03 0 175.23 0L175.23 0 160.39 0Q159.43 0 158.58-0.49 157.72-0.98 157.1-1.82 156.48-2.66 156.11-3.78 155.75-4.91 155.75-6.2L155.75-6.2ZM161.58-14.65L172.15-14.65 172.15-21.39 161.58-21.39 161.58-14.65Z" fill="#d2dbc8" data-fill-palette-color="primary"></path><path d="M196.9 0L196.9 0Q196.98-0.83 197.36-1.6 197.73-2.37 198.31-2.93 198.88-3.49 199.61-3.83 200.35-4.17 201.18-4.17L201.18-4.17 202.2-4.17 202.2-30.81Q202.2-32.1 202.57-33.24 202.93-34.38 203.56-35.22 204.18-36.06 205.02-36.54 205.86-37.01 206.82-37.01L206.82-37.01 214.63-37.01 214.63-33.13 208.01-33.13 208.01-10.16Q208.01-8.89 207.66-7.84 207.31-6.79 206.78-6.01 206.26-5.22 205.62-4.75 204.99-4.27 204.42-4.17L204.42-4.17 218.73-4.17 218.73-9.55 223.88-9.55 223.88-4.15Q223.88-3.27 223.52-2.51 223.15-1.76 222.55-1.2 221.95-0.63 221.18-0.32 220.42 0 219.61 0L219.61 0 196.9 0ZM229.5-6.2L229.5-19.36Q229.5-20.65 229.86-21.78 230.23-22.9 230.85-23.74 231.47-24.58 232.33-25.07 233.18-25.56 234.13-25.56L234.13-25.56 247.1-25.56Q248.05-25.56 248.89-25.07 249.73-24.58 250.37-23.74 251-22.9 251.37-21.78 251.74-20.65 251.74-19.36L251.74-19.36 251.74-11.23 235.33-11.23 235.33-4.17 253.25-4.17Q253.15-3.32 252.77-2.55 252.4-1.78 251.82-1.22 251.25-0.66 250.52-0.33 249.78 0 248.98 0L248.98 0 234.13 0Q233.18 0 232.33-0.49 231.47-0.98 230.85-1.82 230.23-2.66 229.86-3.78 229.5-4.91 229.5-6.2L229.5-6.2ZM235.33-14.65L245.9-14.65 245.9-21.39 235.33-21.39 235.33-14.65ZM260.62-6.13L260.62-18.68Q260.62-20.14 261.02-21.41 261.43-22.68 262.13-23.61 262.84-24.54 263.81-25.06 264.77-25.59 265.89-25.59L265.89-25.59 282.35-25.59 282.35-4.17 287.65-4.17Q287.55-3.32 287.17-2.55 286.79-1.78 286.22-1.22 285.64-0.66 284.91-0.33 284.18 0 283.37 0L283.37 0 280.76 0Q279.57 0 278.49-0.82 277.42-1.64 276.71-3.03L276.71-3.03Q276-1.64 274.93-0.82 273.85 0 272.66 0L272.66 0 265.26 0Q264.31 0 263.45-0.49 262.6-0.98 261.98-1.81 261.35-2.64 260.99-3.75 260.62-4.86 260.62-6.13L260.62-6.13ZM266.43-4.17L276.54-4.17 276.54-21.39 266.43-21.39 266.43-4.17ZM291.89 0L291.89-28.25 297.75-28.25 297.75-25.56 316.16-25.56Q316.06-24.71 315.68-23.94 315.31-23.17 314.74-22.61 314.18-22.05 313.46-21.72 312.74-21.39 311.99-21.39L311.99-21.39 311.99-4.17 317.65-4.17Q317.55-3.32 317.17-2.55 316.79-1.78 316.21-1.22 315.62-0.66 314.87-0.33 314.11 0 313.25 0L313.25 0 310.81 0Q309.86 0 309.01-0.49 308.15-0.98 307.52-1.82 306.88-2.66 306.52-3.78 306.15-4.91 306.15-6.2L306.15-6.2 306.15-21.39 297.7-21.39 297.7 0 291.89 0ZM323.7 0L323.7-25.56 329.54-25.56 329.54-15.89 337.08-23.71Q337.86-24.61 338.7-25.1 339.55-25.59 340.72-25.59L340.72-25.59Q341.69-25.59 342.6-25.1 343.5-24.61 344.18-23.77 344.87-22.92 345.27-21.8 345.67-20.68 345.67-19.38L345.67-19.38 345.67-4.2 350.61-4.2Q350.51-3.32 350.13-2.56 349.75-1.81 349.18-1.23 348.6-0.66 347.87-0.33 347.14 0 346.33 0L346.33 0 344.43 0Q343.45 0 342.61-0.49 341.77-0.98 341.15-1.82 340.52-2.66 340.16-3.78 339.79-4.91 339.79-6.2L339.79-6.2 339.79-21.04 329.54-10.5 329.54 0 323.7 0ZM357.59-31.47L357.59-31.47Q356.73-31.47 355.99-31.79 355.24-32.1 354.68-32.67 354.12-33.23 353.8-33.97 353.48-34.72 353.48-35.57L353.48-35.57Q353.48-36.43 353.8-37.17 354.12-37.92 354.68-38.48 355.24-39.04 355.99-39.37 356.73-39.7 357.59-39.7L357.59-39.7Q358.44-39.7 359.18-39.37 359.93-39.04 360.49-38.48 361.05-37.92 361.38-37.17 361.71-36.43 361.71-35.57L361.71-35.57Q361.71-34.72 361.38-33.97 361.05-33.23 360.49-32.67 359.93-32.1 359.17-31.79 358.42-31.47 357.59-31.47ZM354.73-6.2L354.73-25.56 360.56-25.56 360.56-4.17 365.79-4.17Q365.72-3.32 365.34-2.55 364.96-1.78 364.38-1.22 363.81-0.66 363.08-0.33 362.35 0 361.54 0L361.54 0 359.39 0Q358.44 0 357.59-0.49 356.73-0.98 356.1-1.82 355.46-2.66 355.1-3.78 354.73-4.91 354.73-6.2L354.73-6.2ZM370.64 0L370.64-25.56 376.48-25.56 376.48-15.89 384.02-23.71Q384.8-24.61 385.65-25.1 386.49-25.59 387.66-25.59L387.66-25.59Q388.64-25.59 389.54-25.1 390.44-24.61 391.13-23.77 391.81-22.92 392.21-21.8 392.62-20.68 392.62-19.38L392.62-19.38 392.62-4.2 397.55-4.2Q397.45-3.32 397.07-2.56 396.69-1.81 396.12-1.23 395.55-0.66 394.81-0.33 394.08 0 393.28 0L393.28 0 391.37 0Q390.4 0 389.55-0.49 388.71-0.98 388.09-1.82 387.47-2.66 387.1-3.78 386.73-4.91 386.73-6.2L386.73-6.2 386.73-21.04 376.48-10.5 376.48 0 370.64 0ZM401.97-6.2L401.97-19.36Q401.97-20.65 402.33-21.78 402.7-22.9 403.32-23.74 403.94-24.58 404.8-25.07 405.65-25.56 406.6-25.56L406.6-25.56 423.69-25.56 423.69-4.17 428.85-4.17Q428.75-3.32 428.37-2.55 427.99-1.78 427.42-1.22 426.84-0.66 426.11-0.33 425.38 0 424.57 0L424.57 0 423.69 0 423.69 6.96Q423.69 8.25 423.33 9.39 422.96 10.52 422.33 11.36 421.69 12.21 420.86 12.71 420.03 13.21 419.08 13.21L419.08 13.21 407.24 13.21 407.24 8.98 417.86 8.98 417.86-2.71Q417.15-1.44 416.13-0.72 415.1 0 413.98 0L413.98 0 406.6 0Q405.65 0 404.8-0.49 403.94-0.98 403.32-1.82 402.7-2.66 402.33-3.78 401.97-4.91 401.97-6.2L401.97-6.2ZM407.78-4.17L417.86-4.17 417.86-21.39 407.78-21.39 407.78-4.17Z" fill="#f8f8ec" data-fill-palette-color="accent"></path><path d="M450.65-6.2L450.65-32.86 444.2-32.86Q444.3-33.72 444.68-34.47 445.06-35.23 445.63-35.8 446.21-36.38 446.94-36.71 447.67-37.04 448.48-37.04L448.48-37.04 456.48-37.04 456.48-4.2 465.52-4.2 465.52-37.04 471.38-37.04 471.38-4.2 480.41-4.2 480.41-37.04 486.24-37.04 486.24-6.2Q486.24-4.91 485.88-3.78 485.51-2.66 484.88-1.82 484.24-0.98 483.4-0.49 482.56 0 481.58 0L481.58 0 472.48 0Q471.28 0 470.2-0.82 469.13-1.64 468.42-3.03L468.42-3.03Q467.71-1.64 466.64-0.82 465.57 0 464.37 0L464.37 0 455.31 0Q454.36 0 453.51-0.49 452.65-0.98 452.02-1.82 451.38-2.66 451.02-3.78 450.65-4.91 450.65-6.2L450.65-6.2ZM498.38-31.47L498.38-31.47Q497.52-31.47 496.78-31.79 496.03-32.1 495.47-32.67 494.91-33.23 494.59-33.97 494.27-34.72 494.27-35.57L494.27-35.57Q494.27-36.43 494.59-37.17 494.91-37.92 495.47-38.48 496.03-39.04 496.78-39.37 497.52-39.7 498.38-39.7L498.38-39.7Q499.23-39.7 499.98-39.37 500.72-39.04 501.28-38.48 501.84-37.92 502.17-37.17 502.5-36.43 502.5-35.57L502.5-35.57Q502.5-34.72 502.17-33.97 501.84-33.23 501.28-32.67 500.72-32.1 499.96-31.79 499.21-31.47 498.38-31.47ZM495.52-6.2L495.52-25.56 501.35-25.56 501.35-4.17 506.58-4.17Q506.51-3.32 506.13-2.55 505.75-1.78 505.18-1.22 504.6-0.66 503.87-0.33 503.14 0 502.33 0L502.33 0 500.18 0Q499.23 0 498.38-0.49 497.52-0.98 496.89-1.82 496.25-2.66 495.89-3.78 495.52-4.91 495.52-6.2L495.52-6.2ZM511.48-6.2L511.48-21.8 509.53-21.8 509.53-25.56 511.48-25.56 511.48-32.35 517.32-35.25 517.32-25.56 523.89-25.56 523.89-21.8 517.32-21.8 517.32-4.17 526.06-4.17Q525.96-3.32 525.58-2.55 525.2-1.78 524.62-1.22 524.03-0.66 523.3-0.33 522.57 0 521.76 0L521.76 0 516.12 0Q515.17 0 514.32-0.49 513.46-0.98 512.84-1.82 512.22-2.66 511.85-3.78 511.48-4.91 511.48-6.2L511.48-6.2ZM529.43 0L529.43-38.82 535.26-38.82 535.26-22.78Q535.94-24.1 536.96-24.83 537.97-25.56 539.17-25.56L539.17-25.56 546.52-25.56Q547.47-25.56 548.31-25.07 549.15-24.58 549.79-23.74 550.42-22.9 550.79-21.78 551.15-20.65 551.15-19.36L551.15-19.36 551.15-4.17 556.38-4.17Q556.28-3.32 555.9-2.55 555.52-1.78 554.96-1.22 554.4-0.66 553.67-0.33 552.94 0 552.16 0L552.16 0 549.98 0Q549.03 0 548.18-0.49 547.32-0.98 546.69-1.82 546.05-2.66 545.69-3.78 545.32-4.91 545.32-6.2L545.32-6.2 545.32-21.39 535.26-21.39 535.26 0 529.43 0Z" fill="#d2dbc8" data-fill-palette-color="primary"></path><path d="M580.35 0L580.35-4.17 588.09-4.17 588.09-32.89 580.03-32.89 580.03-24.46 575.01-24.46 575.01-30.81Q575.01-32.1 575.37-33.24 575.74-34.38 576.37-35.22 577.01-36.06 577.85-36.54 578.69-37.01 579.67-37.01L579.67-37.01 593.9-37.01 593.9-6.15Q593.9-4.88 593.54-3.76 593.17-2.64 592.53-1.81 591.9-0.98 591.06-0.49 590.22 0 589.26 0L589.26 0 580.35 0ZM604.84 0L604.84-25.56 610.67-25.56 610.67-15.89 618.22-23.71Q619-24.61 619.84-25.1 620.68-25.59 621.85-25.59L621.85-25.59Q622.83-25.59 623.73-25.1 624.64-24.61 625.32-23.77 626-22.92 626.41-21.8 626.81-20.68 626.81-19.38L626.81-19.38 626.81-4.2 631.74-4.2Q631.64-3.32 631.27-2.56 630.89-1.81 630.31-1.23 629.74-0.66 629.01-0.33 628.27 0 627.47 0L627.47 0 625.56 0Q624.59 0 623.75-0.49 622.9-0.98 622.28-1.82 621.66-2.66 621.29-3.78 620.93-4.91 620.93-6.2L620.93-6.2 620.93-21.04 610.67-10.5 610.67 0 604.84 0ZM636.89-6.2L636.89-21.8 634.94-21.8 634.94-25.56 636.89-25.56 636.89-32.35 642.73-35.25 642.73-25.56 649.29-25.56 649.29-21.8 642.73-21.8 642.73-4.17 651.47-4.17Q651.37-3.32 650.99-2.55 650.61-1.78 650.02-1.22 649.44-0.66 648.71-0.33 647.97 0 647.17 0L647.17 0 641.53 0Q640.58 0 639.72-0.49 638.87-0.98 638.25-1.82 637.62-2.66 637.26-3.78 636.89-4.91 636.89-6.2L636.89-6.2ZM654.83-6.2L654.83-19.36Q654.83-20.65 655.2-21.78 655.56-22.9 656.19-23.74 656.81-24.58 657.66-25.07 658.52-25.56 659.47-25.56L659.47-25.56 672.43-25.56Q673.39-25.56 674.23-25.07 675.07-24.58 675.71-23.74 676.34-22.9 676.71-21.78 677.07-20.65 677.07-19.36L677.07-19.36 677.07-11.23 660.67-11.23 660.67-4.17 678.59-4.17Q678.49-3.32 678.11-2.55 677.73-1.78 677.16-1.22 676.58-0.66 675.85-0.33 675.12 0 674.31 0L674.31 0 659.47 0Q658.52 0 657.66-0.49 656.81-0.98 656.19-1.82 655.56-2.66 655.2-3.78 654.83-4.91 654.83-6.2L654.83-6.2ZM660.67-14.65L671.24-14.65 671.24-21.39 660.67-21.39 660.67-14.65ZM685.47-6.2L685.47-38.84 691.3-38.84 691.3-4.17 696.5-4.17Q696.36-3.2 695.95-2.42 695.55-1.64 694.98-1.1 694.4-0.56 693.68-0.28 692.96 0 692.18 0L692.18 0 690.13 0Q689.18 0 688.33-0.49 687.47-0.98 686.84-1.82 686.2-2.66 685.84-3.78 685.47-4.91 685.47-6.2L685.47-6.2ZM699.92-6.2L699.92-38.84 705.75-38.84 705.75-4.17 710.95-4.17Q710.81-3.2 710.41-2.42 710-1.64 709.43-1.1 708.86-0.56 708.14-0.28 707.41 0 706.63 0L706.63 0 704.58 0Q703.63 0 702.78-0.49 701.92-0.98 701.29-1.82 700.65-2.66 700.29-3.78 699.92-4.91 699.92-6.2L699.92-6.2ZM717.42-31.47L717.42-31.47Q716.57-31.47 715.82-31.79 715.08-32.1 714.52-32.67 713.96-33.23 713.64-33.97 713.32-34.72 713.32-35.57L713.32-35.57Q713.32-36.43 713.64-37.17 713.96-37.92 714.52-38.48 715.08-39.04 715.82-39.37 716.57-39.7 717.42-39.7L717.42-39.7Q718.28-39.7 719.02-39.37 719.77-39.04 720.33-38.48 720.89-37.92 721.22-37.17 721.55-36.43 721.55-35.57L721.55-35.57Q721.55-34.72 721.22-33.97 720.89-33.23 720.33-32.67 719.77-32.1 719.01-31.79 718.25-31.47 717.42-31.47ZM714.57-6.2L714.57-25.56 720.4-25.56 720.4-4.17 725.63-4.17Q725.55-3.32 725.17-2.55 724.8-1.78 724.22-1.22 723.65-0.66 722.92-0.33 722.18 0 721.38 0L721.38 0 719.23 0Q718.28 0 717.42-0.49 716.57-0.98 715.93-1.82 715.3-2.66 714.93-3.78 714.57-4.91 714.57-6.2L714.57-6.2ZM729.8-6.2L729.8-19.36Q729.8-20.65 730.16-21.78 730.53-22.9 731.15-23.74 731.78-24.58 732.63-25.07 733.48-25.56 734.44-25.56L734.44-25.56 751.53-25.56 751.53-4.17 756.68-4.17Q756.58-3.32 756.2-2.55 755.82-1.78 755.25-1.22 754.68-0.66 753.94-0.33 753.21 0 752.4 0L752.4 0 751.53 0 751.53 6.96Q751.53 8.25 751.16 9.39 750.79 10.52 750.16 11.36 749.52 12.21 748.69 12.71 747.86 13.21 746.91 13.21L746.91 13.21 735.07 13.21 735.07 8.98 745.69 8.98 745.69-2.71Q744.98-1.44 743.96-0.72 742.93 0 741.81 0L741.81 0 734.44 0Q733.48 0 732.63-0.49 731.78-0.98 731.15-1.82 730.53-2.66 730.16-3.78 729.8-4.91 729.8-6.2L729.8-6.2ZM735.61-4.17L745.69-4.17 745.69-21.39 735.61-21.39 735.61-4.17ZM760.92-6.2L760.92-19.36Q760.92-20.65 761.29-21.78 761.66-22.9 762.28-23.74 762.9-24.58 763.75-25.07 764.61-25.56 765.56-25.56L765.56-25.56 778.53-25.56Q779.48-25.56 780.32-25.07 781.16-24.58 781.8-23.74 782.43-22.9 782.8-21.78 783.16-20.65 783.16-19.36L783.16-19.36 783.16-11.23 766.76-11.23 766.76-4.17 784.68-4.17Q784.58-3.32 784.2-2.55 783.82-1.78 783.25-1.22 782.68-0.66 781.94-0.33 781.21 0 780.41 0L780.41 0 765.56 0Q764.61 0 763.75-0.49 762.9-0.98 762.28-1.82 761.66-2.66 761.29-3.78 760.92-4.91 760.92-6.2L760.92-6.2ZM766.76-14.65L777.33-14.65 777.33-21.39 766.76-21.39 766.76-14.65ZM792.73 0L792.73-25.56 798.57-25.56 798.57-15.89 806.11-23.71Q806.89-24.61 807.73-25.1 808.58-25.59 809.75-25.59L809.75-25.59Q810.73-25.59 811.63-25.1 812.53-24.61 813.22-23.77 813.9-22.92 814.3-21.8 814.7-20.68 814.7-19.38L814.7-19.38 814.7-4.2 819.64-4.2Q819.54-3.32 819.16-2.56 818.78-1.81 818.21-1.23 817.63-0.66 816.9-0.33 816.17 0 815.36 0L815.36 0 813.46 0Q812.48 0 811.64-0.49 810.8-0.98 810.18-1.82 809.55-2.66 809.19-3.78 808.82-4.91 808.82-6.2L808.82-6.2 808.82-21.04 798.57-10.5 798.57 0 792.73 0ZM824.79-6.2L824.79-21.8 822.83-21.8 822.83-25.56 824.79-25.56 824.79-32.35 830.62-35.25 830.62-25.56 837.19-25.56 837.19-21.8 830.62-21.8 830.62-4.17 839.36-4.17Q839.26-3.32 838.88-2.55 838.51-1.78 837.92-1.22 837.33-0.66 836.6-0.33 835.87 0 835.06 0L835.06 0 829.42 0Q828.47 0 827.62-0.49 826.76-0.98 826.14-1.82 825.52-2.66 825.15-3.78 824.79-4.91 824.79-6.2L824.79-6.2Z" fill="#f8f8ec" data-fill-palette-color="accent"></path><path d="M862.43 0L862.43 0Q862.53-0.85 862.9-1.61 863.28-2.37 863.87-2.94 864.46-3.52 865.18-3.85 865.9-4.17 866.7-4.17L866.7-4.17 877.83-4.17 877.83-32.89 866.29-32.89 866.29-11.23 865.07-11.23Q864.11-11.23 863.27-11.72 862.43-12.21 861.79-13.05 861.16-13.89 860.79-15.03 860.43-16.16 860.43-17.46L860.43-17.46 860.43-30.81Q860.43-32.1 860.79-33.24 861.16-34.38 861.79-35.22 862.43-36.06 863.26-36.54 864.09-37.01 865.04-37.01L865.04-37.01 879.01-37.01Q879.96-37.01 880.81-36.54 881.67-36.06 882.3-35.22 882.94-34.38 883.3-33.24 883.67-32.1 883.67-30.81L883.67-30.81 883.67-9.99Q883.67-8.98 883.42-8.07 883.18-7.15 882.74-6.41 882.3-5.66 881.69-5.09 881.08-4.52 880.35-4.17L880.35-4.17 889.06-4.17Q888.97-3.32 888.59-2.56 888.21-1.81 887.64-1.23 887.06-0.66 886.33-0.33 885.6 0 884.79 0L884.79 0 862.43 0ZM894.16-6.2L894.16-25.56 900-25.56 900-4.17 910.08-4.17 910.08-25.56 915.89-25.56 915.89-4.17 920.85-4.17Q920.75-3.32 920.37-2.55 919.99-1.78 919.42-1.22 918.85-0.66 918.11-0.33 917.38 0 916.58 0L916.58 0 911.99 0 910.08-3.1Q909.81-2.42 909.4-1.84 908.98-1.27 908.46-0.87 907.93-0.46 907.36-0.23 906.79 0 906.25 0L906.25 0 898.8 0Q897.85 0 897-0.49 896.14-0.98 895.52-1.82 894.9-2.66 894.53-3.78 894.16-4.91 894.16-6.2L894.16-6.2ZM927.85-31.47L927.85-31.47Q927-31.47 926.25-31.79 925.51-32.1 924.95-32.67 924.39-33.23 924.07-33.97 923.75-34.72 923.75-35.57L923.75-35.57Q923.75-36.43 924.07-37.17 924.39-37.92 924.95-38.48 925.51-39.04 926.25-39.37 927-39.7 927.85-39.7L927.85-39.7Q928.71-39.7 929.45-39.37 930.2-39.04 930.76-38.48 931.32-37.92 931.65-37.17 931.98-36.43 931.98-35.57L931.98-35.57Q931.98-34.72 931.65-33.97 931.32-33.23 930.76-32.67 930.2-32.1 929.44-31.79 928.68-31.47 927.85-31.47ZM925-6.2L925-25.56 930.83-25.56 930.83-4.17 936.06-4.17Q935.98-3.32 935.6-2.55 935.23-1.78 934.65-1.22 934.08-0.66 933.35-0.33 932.61 0 931.81 0L931.81 0 929.66 0Q928.71 0 927.85-0.49 927-0.98 926.36-1.82 925.73-2.66 925.36-3.78 925-4.91 925-6.2L925-6.2ZM939.5 0L939.5-4.54 953.41-21.39 940.23-21.39 940.23-25.56 959.64-25.56 959.64-21.07 945.8-4.17 961.54-4.17Q961.44-3.32 961.07-2.55 960.69-1.78 960.11-1.22 959.54-0.66 958.81-0.33 958.08 0 957.27 0L957.27 0 939.5 0ZM965.93 0L965.93-4.54 979.85-21.39 966.67-21.39 966.67-25.56 986.08-25.56 986.08-21.07 972.23-4.17 987.98-4.17Q987.88-3.32 987.5-2.55 987.13-1.78 986.55-1.22 985.98-0.66 985.25-0.33 984.51 0 983.71 0L983.71 0 965.93 0ZM993.1-6.2L993.1-19.36Q993.1-20.65 993.47-21.78 993.84-22.9 994.46-23.74 995.08-24.58 995.94-25.07 996.79-25.56 997.74-25.56L997.74-25.56 1010.71-25.56Q1011.66-25.56 1012.5-25.07 1013.34-24.58 1013.98-23.74 1014.61-22.9 1014.98-21.78 1015.35-20.65 1015.35-19.36L1015.35-19.36 1015.35-11.23 998.94-11.23 998.94-4.17 1016.86-4.17Q1016.76-3.32 1016.38-2.55 1016.01-1.78 1015.43-1.22 1014.86-0.66 1014.13-0.33 1013.39 0 1012.59 0L1012.59 0 997.74 0Q996.79 0 995.94-0.49 995.08-0.98 994.46-1.82 993.84-2.66 993.47-3.78 993.1-4.91 993.1-6.2L993.1-6.2ZM998.94-14.65L1009.51-14.65 1009.51-21.39 998.94-21.39 998.94-14.65ZM1021.47 0L1031.73-27.03 1037.58-27.03Q1037.36-26.49 1037.26-25.96 1037.15-25.44 1037.1-25.1L1037.1-25.1Q1037.02-24.19 1037.39-23.46 1037.76-22.73 1038.38-22.06 1039-21.39 1039.82-20.73 1040.64-20.07 1041.49-19.34L1041.49-19.34Q1042.47-18.55 1043.47-17.54 1044.47-16.53 1045.28-15.32 1046.08-14.11 1046.58-12.76 1047.08-11.4 1047.03-9.94L1047.03-9.94Q1046.98-8.91 1046.59-7.97 1046.2-7.03 1045.57-6.29 1044.93-5.54 1044.09-5 1043.25-4.47 1042.32-4.22L1042.32-4.22 1051.4-4.22Q1051.06-3.27 1050.59-2.5 1050.11-1.73 1049.51-1.17 1048.91-0.61 1048.2-0.31 1047.5 0 1046.74 0L1046.74 0 1040.05 0Q1038.93 0 1038.18-0.35 1037.44-0.71 1037.01-1.29 1036.58-1.88 1036.43-2.65 1036.27-3.42 1036.34-4.25L1036.34-4.25Q1037.12-4.35 1037.88-4.66 1038.63-4.98 1039.23-5.58 1039.83-6.18 1040.23-7.08 1040.64-7.98 1040.73-9.25L1040.73-9.25Q1040.83-10.25 1040.54-11.13 1040.25-12.01 1039.76-12.79 1039.27-13.57 1038.63-14.28 1038-14.99 1037.39-15.65L1037.39-15.65Q1036.75-16.48 1036.12-17.65 1035.49-18.82 1035.22-20.51L1035.22-20.51 1027.5 0 1021.47 0Z" fill="#d2dbc8" data-fill-palette-color="primary"></path></g></svg></g></svg></g></svg></g></svg></g></svg></g><defs></defs></svg><rect width="294.3514787311611" height="100.55385313036012" fill="none" stroke="none" visibility="hidden"></rect></g></svg></g></svg>