<svg id="visual" viewBox="0 0 960 540" width="960" height="540" xmlns="http://www.w3.org/2000/svg" xmlns:xlink="http://www.w3.org/1999/xlink" version="1.1"><rect x="0" y="0" width="960" height="540" fill="#00298e"></rect><path d="M594 540L574.2 522C554.3 504 514.7 468 480.2 432C445.7 396 416.3 360 408.2 324C400 288 413 252 451 216C489 180 552 144 568.2 108C584.3 72 553.7 36 538.3 18L523 0L960 0L960 18C960 36 960 72 960 108C960 144 960 180 960 216C960 252 960 288 960 324C960 360 960 396 960 432C960 468 960 504 960 522L960 540Z" fill="#fdf5f9" stroke-linecap="round" strokeLinejoin="miter"></path></svg>