<svg id="visual" viewBox="0 0 1200 100" width="1200" height="100" xmlns="http://www.w3.org/2000/svg" xmlns:xlink="http://www.w3.org/1999/xlink" version="1.1"><rect x="0" y="0" width="1200" height="100" fill="#ffffff"></rect><path d="M0 77L20 75C40 73 80 69 120 62.7C160 56.3 200 47.7 240 46.3C280 45 320 51 360 58.5C400 66 440 75 480 73.5C520 72 560 60 600 56.2C640 52.3 680 56.7 720 58.2C760 59.7 800 58.3 840 57C880 55.7 920 54.3 960 58.3C1000 62.3 1040 71.7 1080 72.3C1120 73 1160 65 1180 61L1200 57L1200 0L1180 0C1160 0 1120 0 1080 0C1040 0 1000 0 960 0C920 0 880 0 840 0C800 0 760 0 720 0C680 0 640 0 600 0C560 0 520 0 480 0C440 0 400 0 360 0C320 0 280 0 240 0C200 0 160 0 120 0C80 0 40 0 20 0L0 0Z" fill="#69befa"></path><path d="M0 50L20 48.2C40 46.3 80 42.7 120 41.8C160 41 200 43 240 46.5C280 50 320 55 360 54.5C400 54 440 48 480 45.7C520 43.3 560 44.7 600 46.3C640 48 680 50 720 47.5C760 45 800 38 840 38.5C880 39 920 47 960 49.8C1000 52.7 1040 50.3 1080 48.5C1120 46.7 1160 45.3 1180 44.7L1200 44L1200 0L1180 0C1160 0 1120 0 1080 0C1040 0 1000 0 960 0C920 0 880 0 840 0C800 0 760 0 720 0C680 0 640 0 600 0C560 0 520 0 480 0C440 0 400 0 360 0C320 0 280 0 240 0C200 0 160 0 120 0C80 0 40 0 20 0L0 0Z" fill="#0094ff"></path><path d="M0 35L20 30.7C40 26.3 80 17.7 120 13.8C160 10 200 11 240 12.7C280 14.3 320 16.7 360 20.3C400 24 440 29 480 32.2C520 35.3 560 36.7 600 34.8C640 33 680 28 720 25.7C760 23.3 800 23.7 840 21.8C880 20 920 16 960 16.5C1000 17 1040 22 1080 23.3C1120 24.7 1160 22.3 1180 21.2L1200 20L1200 0L1180 0C1160 0 1120 0 1080 0C1040 0 1000 0 960 0C920 0 880 0 840 0C800 0 760 0 720 0C680 0 640 0 600 0C560 0 520 0 480 0C440 0 400 0 360 0C320 0 280 0 240 0C200 0 160 0 120 0C80 0 40 0 20 0L0 0Z" fill="#0060ff"></path></svg>